<?xml version="1.0" standalone="no"?><!DOCTYPE svg PUBLIC "-//W3C//DTD SVG 1.1//EN" "http://www.w3.org/Graphics/SVG/1.1/DTD/svg11.dtd"><svg t="1718872657160" class="icon" viewBox="0 0 1024 1024" version="1.1" xmlns="http://www.w3.org/2000/svg" p-id="29764" xmlns:xlink="http://www.w3.org/1999/xlink" width="200" height="200"><path d="M574.1568 559.36c0 31.5904-27.136 58.624-61.0304 58.624-33.8944 0-61.0304-24.832-61.0304-58.624v-500.736C452.096 27.0848 479.232 0 513.1264 0c33.8944 0 61.0304 27.0848 61.0304 58.624v500.736zM0 539.0848c0-173.6704 97.1776-324.8128 241.8688-410.5216 29.3888-18.0224 65.536-9.0112 83.6608 18.0224s9.0112 63.1808-20.3776 78.9504C194.4064 290.9696 122.0608 406.016 122.0608 539.0848c0 203.008 174.08 369.92 391.0656 369.92 214.7328 0 388.8128-164.6592 391.0656-369.92 0-135.3216-76.8512-252.6208-192.1536-318.0032a56.9856 56.9856 0 0 1-22.6304-78.9504 64 64 0 0 1 83.6608-20.2752C922.2656 205.2608 1024 360.8576 1024 539.0848 1024 807.4752 795.6992 1024 510.8736 1024 228.3008 1024 0 805.2224 0 539.0848" fill="" p-id="29765"></path></svg>